<?xml version="1.0" encoding="UTF-8" standalone="no"?>
<svg
   xmlns:dc="http://purl.org/dc/elements/1.1/"
   xmlns:cc="http://creativecommons.org/ns#"
   xmlns:rdf="http://www.w3.org/1999/02/22-rdf-syntax-ns#"
   xmlns:svg="http://www.w3.org/2000/svg"
   xmlns="http://www.w3.org/2000/svg"
   xmlns:sodipodi="http://sodipodi.sourceforge.net/DTD/sodipodi-0.dtd"
   xmlns:inkscape="http://www.inkscape.org/namespaces/inkscape"
   version="1.1"
   width="240.7mm"
   height="144.7mm"
   viewBox=" 0 0 852.8747169999999 512.716957"
   id="svg4155"
   inkscape:version="0.91 r13725"
   sodipodi:docname="mqttcounter.svg">
  <metadata
     id="metadata4185">
    <rdf:RDF>
      <cc:Work
         rdf:about="">
        <dc:format>image/svg+xml</dc:format>
        <dc:type
           rdf:resource="http://purl.org/dc/dcmitype/StillImage" />
      </cc:Work>
    </rdf:RDF>
  </metadata>
  <defs
     id="defs4183" />
  <sodipodi:namedview
     pagecolor="#ffffff"
     bordercolor="#666666"
     borderopacity="1"
     objecttolerance="10"
     gridtolerance="10"
     guidetolerance="10"
     inkscape:pageopacity="0"
     inkscape:pageshadow="2"
     inkscape:window-width="1325"
     inkscape:window-height="718"
     id="namedview4181"
     showgrid="false"
     inkscape:zoom="1.0318054"
     inkscape:cx="426.437"
     inkscape:cy="256.35826"
     inkscape:window-x="41"
     inkscape:window-y="31"
     inkscape:window-maximized="1"
     inkscape:current-layer="svg4155" />
  <!-- Front-->
  <g
     transform="translate(22.5000185, 22.5000185) "
     id="g4157">
    <polygon
       style="stroke:#000000; fill:none; stroke-width:0.90000074"
       points="0, 0 28.34648, 0 28.34648, 10.62993 56.69296, 10.62993 56.69296, 0 77.95282, 0 77.95282, 10.62993 99.21268, 10.62993 99.21268, 0 120.47254, 0 120.47254, 10.62993 141.73239999999998, 10.62993 141.73239999999998, 0 162.99226, 0 162.99226, 10.62993 184.25212, 10.62993 184.25212, 0 205.51198, 0 205.51198, 10.62993 226.77184, 10.62993 226.77184, 0 248.0317, 0 248.0317, 10.62993 276.37818, 10.62993 276.37818, 0 304.72466, 0 304.72466, 31.889789999999998 294.09472999999997, 31.889789999999998 294.09472999999997, 63.779579999999996 304.72466, 63.779579999999996 304.72466, 85.03944 294.09472999999997, 85.03944 294.09472999999997, 106.29929999999999 304.72466, 106.29929999999999 304.72466, 127.55915999999999 294.09472999999997, 127.55915999999999 294.09472999999997, 148.81902 304.72466, 148.81902 304.72466, 170.07888 294.09472999999997, 170.07888 294.09472999999997, 201.96866999999997 304.72466, 201.96866999999997 304.72466, 233.85846 276.37818, 233.85846 276.37818, 223.22853 248.0317, 223.22853 248.0317, 233.85846 226.77184, 233.85846 226.77184, 223.22853 205.51198, 223.22853 205.51198, 233.85846 184.25212, 233.85846 184.25212, 223.22853 162.99226, 223.22853 162.99226, 233.85846 141.73239999999998, 233.85846 141.73239999999998, 223.22853 120.47254, 223.22853 120.47254, 233.85846 99.21268, 233.85846 99.21268, 223.22853 77.95282, 223.22853 77.95282, 233.85846 56.69296, 233.85846 56.69296, 223.22853 28.34648, 223.22853 28.34648, 233.85846 0, 233.85845999999998 0, 201.96866999999997 10.62993, 201.96866999999997 10.62993, 170.07888 0, 170.07888 0, 148.81902 10.62993, 148.81902 10.62993, 127.55915999999999 0, 127.55915999999999 0, 106.29929999999999 10.62993, 106.29929999999999 10.62993, 85.03944 0, 85.03944 0, 63.779579999999996 10.62993, 63.779579999999996 10.62993, 31.889789999999998 0, 31.889789999999998 "
       id="polygon4159" />
  </g>
  <!-- Back-->
  <g
     transform="translate(327.2246785, 22.5000185) "
     id="g4161">
    <polygon
       style="stroke:#000000; fill:none; stroke-width:0.90000074"
       points="0, 0 28.34648, 0 28.34648, 10.62993 56.69296, 10.62993 56.69296, 0 77.95282, 0 77.95282, 10.62993 99.21268, 10.62993 99.21268, 0 120.47254, 0 120.47254, 10.62993 141.73239999999998, 10.62993 141.73239999999998, 0 162.99226, 0 162.99226, 10.62993 184.25212, 10.62993 184.25212, 0 205.51198, 0 205.51198, 10.62993 226.77184, 10.62993 226.77184, 0 248.0317, 0 248.0317, 10.62993 276.37818, 10.62993 276.37818, 0 304.72466, 0 304.72466, 31.889789999999998 294.09472999999997, 31.889789999999998 294.09472999999997, 63.779579999999996 304.72466, 63.779579999999996 304.72466, 85.03944 294.09472999999997, 85.03944 294.09472999999997, 106.29929999999999 304.72466, 106.29929999999999 304.72466, 127.55915999999999 294.09472999999997, 127.55915999999999 294.09472999999997, 148.81902 304.72466, 148.81902 304.72466, 170.07888 294.09472999999997, 170.07888 294.09472999999997, 201.96866999999997 304.72466, 201.96866999999997 304.72466, 233.85846 276.37818, 233.85846 276.37818, 223.22853 248.0317, 223.22853 248.0317, 233.85846 226.77184, 233.85846 226.77184, 223.22853 205.51198, 223.22853 205.51198, 233.85846 184.25212, 233.85846 184.25212, 223.22853 162.99226, 223.22853 162.99226, 233.85846 141.73239999999998, 233.85846 141.73239999999998, 223.22853 120.47254, 223.22853 120.47254, 233.85846 99.21268, 233.85846 99.21268, 223.22853 77.95282, 223.22853 77.95282, 233.85846 56.69296, 233.85846 56.69296, 223.22853 28.34648, 223.22853 28.34648, 233.85846 0, 233.85845999999998 0, 201.96866999999997 10.62993, 201.96866999999997 10.62993, 170.07888 0, 170.07888 0, 148.81902 10.62993, 148.81902 10.62993, 127.55915999999999 0, 127.55915999999999 0, 106.29929999999999 10.62993, 106.29929999999999 10.62993, 85.03944 0, 85.03944 0, 63.779579999999996 10.62993, 63.779579999999996 10.62993, 31.889789999999998 0, 31.889789999999998 "
       id="polygon4163" />
  </g>
  <!-- Left-->
  <g
     transform="translate(631.9493385, 22.5000185) "
     id="g4165">
    <polygon
       style="stroke:#000000; fill:none; stroke-width:0.90000074"
       points="10.62993, 0 33.661445, 0 33.661445, 10.62993 67.32289, 10.62993 67.32289, 0 88.58275, 0 88.58275, 10.62993 109.84261000000001, 10.62993 109.84261000000001, 0 131.10246999999998, 0 131.10246999999998, 10.62993 164.763915, 10.62993 164.763915, 0 187.79543, 0 187.79543, 31.889789999999998 198.42536, 31.889789999999998 198.42536, 63.779579999999996 187.79543, 63.779579999999996 187.79543, 85.03944 198.42536, 85.03944 198.42536, 106.29929999999999 187.79543, 106.29929999999999 187.79543, 127.55915999999999 198.42536, 127.55915999999999 198.42536, 148.81902 187.79543, 148.81902 187.79543, 170.07888 198.42536, 170.07888 198.42536, 201.96866999999997 187.79543, 201.96866999999997 187.79543, 233.85846 164.763915, 233.85846 164.763915, 223.22853 131.10246999999998, 223.22853 131.10246999999998, 233.85846 109.84261000000001, 233.85846 109.84261000000001, 223.22853 88.58275, 223.22853 88.58275, 233.85846 67.32289, 233.85846 67.32289, 223.22853 33.661445, 223.22853 33.661445, 233.85846 10.62993, 233.85845999999998 10.62993, 201.96866999999997 0, 201.96866999999997 0, 170.07888 10.62993, 170.07888 10.62993, 148.81902 0, 148.81902 0, 127.55915999999999 10.62993, 127.55915999999999 10.62993, 106.29929999999999 0, 106.29929999999999 0, 85.03944 10.62993, 85.03944 10.62993, 63.779579999999996 0, 63.779579999999996 0, 31.889789999999998 10.62993, 31.889789999999998 "
       id="polygon4167" />
  </g>
  <!-- Right-->
  <g
     transform="translate(631.9493385, 256.3584785) "
     id="g4169">
    <polygon
       style="stroke:#000000; fill:none; stroke-width:0.90000074"
       points="10.62993, 0 33.661445, 0 33.661445, 10.62993 67.32289, 10.62993 67.32289, 0 88.58275, 0 88.58275, 10.62993 109.84261000000001, 10.62993 109.84261000000001, 0 131.10246999999998, 0 131.10246999999998, 10.62993 164.763915, 10.62993 164.763915, 0 187.79543, 0 187.79543, 31.889789999999998 198.42536, 31.889789999999998 198.42536, 63.779579999999996 187.79543, 63.779579999999996 187.79543, 85.03944 198.42536, 85.03944 198.42536, 106.29929999999999 187.79543, 106.29929999999999 187.79543, 127.55915999999999 198.42536, 127.55915999999999 198.42536, 148.81902 187.79543, 148.81902 187.79543, 170.07888 198.42536, 170.07888 198.42536, 201.96866999999997 187.79543, 201.96866999999997 187.79543, 233.85846 164.763915, 233.85846 164.763915, 223.22853 131.10246999999998, 223.22853 131.10246999999998, 233.85846 109.84261000000001, 233.85846 109.84261000000001, 223.22853 88.58275, 223.22853 88.58275, 233.85846 67.32289, 233.85846 67.32289, 223.22853 33.661445, 223.22853 33.661445, 233.85846 10.62993, 233.85845999999998 10.62993, 201.96866999999997 0, 201.96866999999997 0, 170.07888 10.62993, 170.07888 10.62993, 148.81902 0, 148.81902 0, 127.55915999999999 10.62993, 127.55915999999999 10.62993, 106.29929999999999 0, 106.29929999999999 0, 85.03944 10.62993, 85.03944 10.62993, 63.779579999999996 0, 63.779579999999996 0, 31.889789999999998 10.62993, 31.889789999999998 "
       id="polygon4171" />
  </g>
  <!-- Top-->
  <g
     transform="translate(22.5000185, 256.3584785) "
     id="g4173">
    <polygon
       style="stroke:#000000; fill:none; stroke-width:0.90000074"
       points="10.62993, 10.62993 28.34648, 10.62993 28.34648, 0 56.69296, 0 56.69296, 10.62993 77.95282, 10.62993 77.95282, 0 99.21268, 0 99.21268, 10.62993 120.47254, 10.62993 120.47254, 0 141.73239999999998, 0 141.73239999999998, 10.62993 162.99226, 10.62993 162.99226, 0 184.25212, 0 184.25212, 10.62993 205.51198, 10.62993 205.51198, 0 226.77184, 0 226.77184, 10.62993 248.0317, 10.62993 248.0317, 0 276.37818, 0 276.37818, 10.62993 294.09472999999997, 10.62993 294.09472999999997, 33.661445 304.72466, 33.661445 304.72466, 67.32289 294.09472999999997, 67.32289 294.09472999999997, 88.58275 304.72466, 88.58275 304.72466, 109.84261000000001 294.09472999999997, 109.84261000000001 294.09472999999997, 131.10246999999998 304.72466, 131.10246999999998 304.72466, 164.763915 294.09472999999997, 164.763915 294.09472999999997, 187.79543 276.37818, 187.79543 276.37818, 198.42536 248.0317, 198.42536 248.0317, 187.79543 226.77184, 187.79543 226.77184, 198.42536 205.51198, 198.42536 205.51198, 187.79543 184.25212, 187.79543 184.25212, 198.42536 162.99226, 198.42536 162.99226, 187.79543 141.73239999999998, 187.79543 141.73239999999998, 198.42536 120.47254, 198.42536 120.47254, 187.79543 99.21268, 187.79543 99.21268, 198.42536 77.95282, 198.42536 77.95282, 187.79543 56.69296, 187.79543 56.69296, 198.42536 28.34648, 198.42536 28.34648, 187.79543 10.62993, 187.79543 10.62993, 164.763915 0, 164.763915 0, 131.10246999999998 10.62993, 131.10246999999998 10.62993, 109.84261000000001 0, 109.84261000000001 0, 88.58275 10.62993, 88.58275 10.62993, 67.32289 0, 67.32289 0, 33.661445 10.62993, 33.661445 "
       id="polygon4175" />
  </g>
  <!-- Bottom-->
  <g
     transform="translate(327.2246785, 256.3584785) "
     id="g4177">
    <polygon
       style="stroke:#000000; fill:none; stroke-width:0.90000074"
       points="10.62993, 10.62993 28.34648, 10.62993 28.34648, 0 56.69296, 0 56.69296, 10.62993 77.95282, 10.62993 77.95282, 0 99.21268, 0 99.21268, 10.62993 120.47254, 10.62993 120.47254, 0 141.73239999999998, 0 141.73239999999998, 10.62993 162.99226, 10.62993 162.99226, 0 184.25212, 0 184.25212, 10.62993 205.51198, 10.62993 205.51198, 0 226.77184, 0 226.77184, 10.62993 248.0317, 10.62993 248.0317, 0 276.37818, 0 276.37818, 10.62993 294.09472999999997, 10.62993 294.09472999999997, 33.661445 304.72466, 33.661445 304.72466, 67.32289 294.09472999999997, 67.32289 294.09472999999997, 88.58275 304.72466, 88.58275 304.72466, 109.84261000000001 294.09472999999997, 109.84261000000001 294.09472999999997, 131.10246999999998 304.72466, 131.10246999999998 304.72466, 164.763915 294.09472999999997, 164.763915 294.09472999999997, 187.79543 276.37818, 187.79543 276.37818, 198.42536 248.0317, 198.42536 248.0317, 187.79543 226.77184, 187.79543 226.77184, 198.42536 205.51198, 198.42536 205.51198, 187.79543 184.25212, 187.79543 184.25212, 198.42536 162.99226, 198.42536 162.99226, 187.79543 141.73239999999998, 187.79543 141.73239999999998, 198.42536 120.47254, 198.42536 120.47254, 187.79543 99.21268, 187.79543 99.21268, 198.42536 77.95282, 198.42536 77.95282, 187.79543 56.69296, 187.79543 56.69296, 198.42536 28.34648, 198.42536 28.34648, 187.79543 10.62993, 187.79543 10.62993, 164.763915 0, 164.763915 0, 131.10246999999998 10.62993, 131.10246999999998 10.62993, 109.84261000000001 0, 109.84261000000001 0, 88.58275 10.62993, 88.58275 10.62993, 67.32289 0, 67.32289 0, 33.661445 10.62993, 33.661445 "
       id="polygon4179" />
  </g>
  <rect
     style="fill:none;fill-rule:evenodd;stroke:#ff0000;stroke-width:0.67240208px;stroke-linecap:butt;stroke-linejoin:miter;stroke-opacity:1"
     id="rect4187"
     width="109.1702"
     height="52.477249"
     x="373.93802"
     y="113.19062" />
  <rect
     style="fill:none;fill-rule:evenodd;stroke:#ff0000;stroke-width:1px;stroke-linecap:butt;stroke-linejoin:miter;stroke-opacity:1"
     id="rect4189"
     width="23.260218"
     height="22.291044"
     x="795.6933"
     y="128.92332" />
</svg>
